# xmcd CD database file
#
# Track frame offsets:
#	150
#	12564
#	24146
#	35581
#	46590
#	59129
#	71744
#	87125
#	104807
#	112789
#	126170
#	140922
#	154021
#	168175
#	181671
#	192034
#	205334
#	220082
#	228093
#	239298
#
# Disc length: 3334 seconds
#
# Revision: 0
# Processed by: cddbd v1.5.2PL0 Copyright (c) Steve Scherf et al.
# Submitted via: CDex 1.50
#
DISCID=0e0d0414
DTITLE=Johnny Cash - Legends
DYEAR=2007
DGENRE=Country
TTITLE0=Ring of Fire
TTITLE1=I walk the line
TTITLE2=Get rhythm
TTITLE3=Cry, cry, cry
TTITLE4=Folsom Prison Blues
TTITLE5=Ballad of a teenage queen
TTITLE6=The night Hank Williams came to town
TTITLE7=Sunday morning coming down
TTITLE8=Five feet high and rising
TTITLE9=Dont take your guns to town
TTITLE10=Long black veil
TTITLE11=Ballad of Ira Hayes
TTITLE12=Tennesse Flat Top Box
TTITLE13=I still miss someone
TTITLE14=A thing called love
TTITLE15=Peace in the valley
TTITLE16=Home of the blues
TTITLE17=Guess things happen that way
TTITLE18=Dont go near the water
TTITLE19=Supper time
EXTD=YEAR: 2007
EXTT0=
EXTT1=
EXTT2=
EXTT3=
EXTT4=
EXTT5=
EXTT6=
EXTT7=
EXTT8=
EXTT9=
EXTT10=
EXTT11=
EXTT12=
EXTT13=
EXTT14=
EXTT15=
EXTT16=
EXTT17=
EXTT18=
EXTT19=
PLAYORDER=
